<?xml version="1.0" standalone="no"?>
<!DOCTYPE svg PUBLIC "-//W3C//DTD SVG 20010904//EN"
 "http://www.w3.org/TR/2001/REC-SVG-20010904/DTD/svg10.dtd">
<svg version="1.0" xmlns="http://www.w3.org/2000/svg"
 width="226.000000pt" height="223.000000pt" viewBox="0 0 226.000000 223.000000"
 preserveAspectRatio="xMidYMid meet">

<g transform="translate(0.000000,223.000000) scale(0.100000,-0.100000)"
fill="#000000" stroke="none">
<path d="M985 2104 c-44 -7 -99 -13 -123 -13 -70 -1 -166 -55 -252 -141 -41
-41 -82 -84 -90 -95 -8 -11 -28 -37 -43 -58 -52 -69 -90 -194 -112 -371 -21
-169 -22 -201 -6 -198 21 4 42 -19 36 -39 -3 -10 1 -31 9 -47 8 -16 12 -32 9
-35 -7 -8 9 -13 60 -22 29 -5 37 -3 37 10 0 29 17 15 29 -26 7 -24 30 -59 56
-84 62 -62 137 -80 219 -50 l38 13 -32 -31 c-73 -70 -91 -148 -50 -215 11 -18
20 -41 20 -51 0 -11 6 -21 12 -23 10 -4 10 -11 -1 -34 -12 -26 -14 -27 -20
-10 -9 22 -42 30 -54 13 -7 -9 -10 -9 -14 1 -7 17 -19 15 -43 -5 -21 -18 -27
-53 -10 -53 6 0 10 -4 10 -9 0 -6 -9 -9 -19 -8 -11 0 -17 6 -14 14 6 14 -54
113 -68 113 -4 0 -6 6 -3 13 3 8 -2 14 -12 14 -13 0 -15 -8 -11 -39 6 -47 14
-58 28 -38 7 11 8 8 4 -11 -5 -18 2 -41 24 -78 17 -28 31 -55 31 -59 0 -14 72
-82 86 -82 8 0 14 -4 14 -9 0 -5 8 -12 18 -15 9 -3 33 -19 52 -36 37 -32 128
-79 195 -100 24 -8 85 -13 156 -12 106 0 122 3 170 28 237 119 410 372 514
751 8 29 25 70 38 90 41 66 62 181 62 338 l0 140 -72 145 c-77 157 -111 198
-215 264 -31 20 -59 36 -62 36 -3 0 -47 20 -98 44 -64 30 -112 46 -155 50 -35
4 -79 14 -98 21 -41 18 -138 17 -250 -1z m-172 -558 c3 -8 11 -7 26 2 26 15
66 16 94 0 12 -6 35 -13 52 -15 16 -2 37 -6 46 -8 26 -8 49 -49 42 -74 -5 -19
-10 -21 -32 -14 -33 10 -277 10 -358 0 l-62 -8 11 33 c15 44 42 82 73 102 23
15 28 15 47 1 31 -21 41 -19 35 8 -6 21 -5 21 8 3 8 -10 16 -24 18 -30z m482
-92 c0 -27 -3 -29 -39 -29 -47 0 -54 13 -26 48 28 35 65 24 65 -19z m-31 -69
c-7 -18 -20 -19 -30 -4 -3 6 -15 9 -25 6 -11 -3 -17 -1 -13 4 3 5 21 9 39 9
26 0 33 -3 29 -15z m-76 -36 c-7 -5 -23 -9 -34 -9 -12 0 -27 -7 -35 -16 -12
-14 -14 -14 -26 2 -7 10 -13 20 -13 24 0 3 27 6 61 6 35 0 55 -3 47 -7z m-4
-68 c-9 -41 -12 -258 -4 -281 3 -8 -4 -18 -18 -25 -27 -12 -38 -41 -22 -60 20
-24 3 -34 -42 -23 -60 13 -157 -5 -178 -34 -3 -4 -27 -9 -53 -12 -45 -6 -47
-5 -37 13 5 11 19 22 29 26 20 6 88 92 108 135 6 14 31 49 56 77 43 50 76 119
91 190 7 32 25 43 59 35 16 -4 18 -10 11 -41z m-115 -9 c0 -11 -3 -12 -6 -4
-2 6 -9 12 -14 12 -4 0 -6 -7 -2 -15 3 -9 1 -15 -5 -13 -6 2 -17 -6 -26 -17
-12 -16 -17 -18 -27 -7 -7 6 -36 13 -63 14 -51 1 -51 2 -8 5 23 2 42 8 42 14
0 5 -5 9 -12 9 -32 0 10 15 55 20 60 7 67 5 66 -18z m308 -2 c9 0 13 -6 10
-14 -3 -7 -1 -18 5 -24 17 -17 -11 -25 -43 -12 -38 16 -40 70 -1 55 7 -3 20
-5 29 -5z m-942 -70 c3 -5 -1 -10 -10 -10 -9 0 -13 5 -10 10 3 6 8 10 10 10 2
0 7 -4 10 -10z m533 -29 c3 -9 0 -11 -9 -5 -7 4 -29 11 -49 15 -34 7 -33 7 9
6 28 -1 46 -7 49 -16z m307 -34 c8 -19 21 -39 29 -47 18 -14 22 -50 6 -50 -5
0 -10 6 -10 14 0 8 -4 16 -8 18 -11 4 -52 73 -52 87 0 23 22 10 35 -22z m-423
-329 c-7 -7 -12 -8 -12 -2 0 14 12 26 19 19 2 -3 -1 -11 -7 -17z m91 -28 c-3
-11 -14 -20 -24 -20 -24 0 -24 9 -1 26 24 19 31 17 25 -6z m-58 -10 c3 -5 1
-10 -4 -10 -6 0 -11 5 -11 10 0 6 2 10 4 10 3 0 8 -4 11 -10z m226 -37 c6 -6
25 -9 45 -6 29 5 35 2 46 -22 11 -25 13 -25 25 -9 9 13 16 14 26 6 8 -7 17 -9
20 -5 13 13 7 -13 -8 -34 -15 -21 -22 -22 -118 -18 -56 2 -104 4 -107 5 -3 1
-9 2 -14 1 -5 -1 -16 5 -26 14 -10 9 -21 12 -24 7 -8 -14 19 -33 56 -41 17 -4
33 -12 35 -18 5 -14 -60 -28 -78 -17 -16 10 -8 -13 26 -65 14 -23 32 -41 40
-41 8 0 15 -5 15 -11 0 -7 8 -18 18 -25 16 -12 15 -13 -5 -14 -13 0 -23 -4
-23 -10 0 -5 5 -10 11 -10 24 0 1 -25 -25 -27 -15 -1 -34 -7 -41 -13 -9 -8
-15 -8 -20 0 -3 5 -2 10 4 10 6 0 8 7 5 15 -4 8 -1 15 6 15 7 0 1 11 -14 25
-14 13 -32 22 -40 19 -7 -3 -16 2 -19 10 -4 9 -13 16 -22 16 -8 0 -15 6 -15
13 0 7 -9 20 -20 30 -12 10 -20 29 -20 46 0 17 -4 32 -9 35 -7 5 12 83 23 94
2 1 16 -4 32 -13 28 -14 29 -14 32 7 2 12 10 27 18 33 20 14 150 13 165 -2z"/>
<path d="M1004 976 c-3 -8 -1 -24 6 -35 8 -16 20 -21 55 -21 59 0 64 14 16 45
-46 28 -69 32 -77 11z"/>
<path d="M351 1176 c-16 -19 -11 -29 8 -17 7 5 12 14 9 21 -3 9 -8 7 -17 -4z"/>
<path d="M465 1063 c-46 -11 -54 -35 -34 -105 6 -22 16 -38 25 -38 8 0 18 -10
23 -22 7 -20 10 -17 15 22 11 76 11 143 1 145 -5 1 -19 0 -30 -2z"/>
<path d="M430 839 c0 -8 7 -24 16 -35 14 -18 15 -18 8 6 -8 31 -24 50 -24 29z"/>
<path d="M480 812 c0 -18 4 -32 9 -32 5 0 8 11 7 25 -4 38 -16 43 -16 7z"/>
<path d="M521 714 c0 -11 3 -14 6 -6 3 7 2 16 -1 19 -3 4 -6 -2 -5 -13z"/>
</g>
</svg>
