<?xml version="1.0" standalone="no"?>
<!DOCTYPE svg PUBLIC "-//W3C//DTD SVG 20010904//EN"
 "http://www.w3.org/TR/2001/REC-SVG-20010904/DTD/svg10.dtd">
<svg version="1.0" xmlns="http://www.w3.org/2000/svg"
 width="225.000000pt" height="225.000000pt" viewBox="0 0 225.000000 225.000000"
 preserveAspectRatio="xMidYMid meet">

<g transform="translate(0.000000,225.000000) scale(0.100000,-0.100000)"
fill="#000000" stroke="none">
<path d="M1009 2237 c-100 -29 -199 -112 -242 -205 -22 -47 -22 -50 -25 -733
l-3 -686 -145 -6 c-137 -5 -149 -7 -209 -36 -104 -51 -156 -132 -163 -252 -4
-66 -1 -84 20 -131 34 -75 79 -122 146 -155 l57 -28 680 0 680 0 57 28 c101
49 158 137 166 252 8 129 -57 238 -175 292 -47 22 -73 26 -198 31 l-144 5 -3
686 -3 686 -29 58 c-36 71 -109 140 -181 174 -68 30 -213 41 -286 20z m71 -98
c0 -34 19 -59 45 -59 26 0 45 25 45 59 0 27 30 27 86 2 59 -27 111 -77 142
-135 26 -49 27 -59 30 -228 l4 -178 -306 0 -306 0 0 158 c0 190 11 238 72 307
66 75 188 123 188 74z m348 -1337 l2 -712 -305 0 -305 0 0 708 c0 390 3 712 7
715 4 4 140 6 302 5 l296 -3 3 -713z m-688 -497 l0 -215 -135 0 c-100 0 -145
4 -173 15 -80 34 -126 106 -126 200 0 66 15 103 61 149 53 54 94 66 241 66
l132 0 0 -215z m1075 196 c53 -24 111 -90 125 -142 23 -86 -13 -180 -88 -234
-43 -30 -45 -30 -193 -33 l-149 -3 0 215 0 216 133 0 c106 0 140 -4 172 -19z"/>
</g>
</svg>
