<?xml version="1.0" standalone="no"?>
<!DOCTYPE svg PUBLIC "-//W3C//DTD SVG 20010904//EN"
 "http://www.w3.org/TR/2001/REC-SVG-20010904/DTD/svg10.dtd">
<svg version="1.0" xmlns="http://www.w3.org/2000/svg"
 width="24.000000pt" height="24.000000pt" viewBox="0 0 24.000000 24.000000"
 preserveAspectRatio="xMidYMid meet">

<g transform="translate(0.000000,24.000000) scale(0.100000,-0.100000)"
fill="#000000" stroke="none">
<path d="M0 115 l0 -115 120 0 120 0 0 80 c0 57 -4 80 -12 80 -9 0 -10 2 -2 8
7 4 11 18 10 32 l-1 25 -117 3 -118 3 0 -116z m127 88 c-20 -2 -52 -2 -70 0
-17 2 0 4 38 4 39 0 53 -2 32 -4z m-47 -106 c0 -20 -1 -20 -16 -5 -9 9 -13 21
-9 27 10 16 25 3 25 -22z m22 11 c-7 -7 -12 -8 -12 -2 0 14 12 26 19 19 2 -3
-1 -11 -7 -17z m8 -22 c0 -3 -4 -8 -10 -11 -5 -3 -10 -1 -10 4 0 6 5 11 10 11
6 0 10 -2 10 -4z m103 -43 c-7 -2 -9 -11 -6 -19 4 -10 0 -12 -11 -8 -20 8 -20
9 0 29 9 9 19 13 23 9 3 -4 1 -9 -6 -11z m-177 -19 c-21 -20 -28 -17 -14 5 7
11 16 17 20 15 5 -3 2 -12 -6 -20z"/>
</g>
</svg>
